<mxfile host="Electron" agent="Mozilla/5.0 (Windows NT 10.0; Win64; x64) AppleWebKit/537.36 (KHTML, like Gecko) draw.io/24.7.17 Chrome/128.0.6613.36 Electron/32.0.1 Safari/537.36" version="24.7.17">
  <diagram name="第 1 页" id="ibrbiMbML0F3GtrcEm0D">
    <mxGraphModel dx="1050" dy="629" grid="0" gridSize="10" guides="1" tooltips="1" connect="1" arrows="1" fold="1" page="0" pageScale="1" pageWidth="1169" pageHeight="827" math="0" shadow="0">
      <root>
        <mxCell id="0" />
        <mxCell id="1" parent="0" />
        <mxCell id="3UD2lBTm2U6b-ysUh9K5-1" value="" style="shape=image;verticalLabelPosition=bottom;labelBackgroundColor=default;verticalAlign=top;aspect=fixed;imageAspect=0;image=data:image/png,iVBORw0KGgoAAAANSUhEUgAAAw8AAACxCAIAAAANlhYZAAAgAElEQVR4Ae3di3dU5bnHcf+kZAVkWZddPZVjj3jUqnXZqi0KxxZre2q51HqqqGit1dYiUSCQAEEuotWAFEVAiUEUFwED0iISlKtAuGRKgJBMMu9p+7aPT599mT2Z2ZmLX5Zr+WZf3svn3dnvL3smk8uy/EMAAQQQQAABBBCIFrhsiH8IIIAAAggggAAC0QKXDfMPAQQQQAABBBBAIFqAtBRtwx4EEEAAAQQQQGB4+LIc/xBAAAEEEEAAAQSiBUhL0TbsQQABBBBAAAEEcjnSElcBAggggAACCCAQJ0BaitNhHwIIIIAAAgggcJnjHwIIIIAAAggggEC0AGkp2oY9CCCAAAIIIICAc6QlrgIEEEAAAQQQQCBOgLQUp8M+BBBAAAEEEECAtMQ1gAACCCCAAAIIxAmQluJ02IcAAggggAACCJCWuAYQQAABBBBAAIE4AdJSnA77EEAAAQQQQAAB0hLXAAIIIIAAAgggECdAWorTYR8CCCCAAAIIIEBa4hpAAAEEEEAAAQTiBEhLcTrsQwABBBBAAAEESEvpXgO9vb1PP/3M5eOuuHr8NcuWLR8YGEi3PWpPLHC2t/fO70+sq2/w/z344K/6+/vjz66E2ayEPsQrsRcBBBCoPQHSUopz2t/fP3PmI7Ie19U3tCxanMvlUmySqhMLFJqWKmE2K6EPiYE5EAEEEKgdgVTS0vDw8P79+5tbFk2a/D9Xff0bEhe+fdMtU6dNf33t2p6engoPDWfPnv3BxLuk577wg4l3nT17NvnkH/jss2snXKcrmXjXpEwmk7yGSjiyBmYzlLHQtFT8bJ47d66zs/O5OY3Tps8429sb2qv4jcX3Ib5+9iKAAAIIhAqUOC3lcrk9e/bcPWmyjgjB8rUTrjvw2WehHaqQjZ2dnWPGjjM9/9qVV+3e/XHyHlb72lYzsxk6ZaOZljKZzJR775PL6c7vTyQthU4KGxFAAIHKFChlWhoYGJg/vykYMmSRkELlp6Xm5hbprS4sX74i+URW9esmtTSboVNWaFoqZjZNWyNOS8X0IRSBjQgggAACSQRKlpay2ezcufN0sIgpV3haOn/+/P33Tw3t/9Rp0y9cuJBE1h9Tpe/JraXZjJosk2BSfZe3aWvEack5V6VXVNQssB0BBBCoCoGSpaXX1641T5WuHn/NSy+tOnHixPDwsHNueHg4k8l0d3cvX75i2vQZn332ecUC6VfQrp1w3U9++jNJThWe80pFWkuzGWViEkyStBRVVd7tpq1i0lLetjgAAQQQQKDkAqVJS4cPH7n5llslUtTVN0yefM/x48dL3t3RqbCtbbWM5f77p27evFkHwQ0bN45ON8rVSo3NZhSjSTCkpSgotiOAAAIIlCAt5XK5lkWLJV7U1TfccONN3d3dVYo7ODg4a9bjMpzm5paTJ0/edtv3ZMtTv306m82Gjs4swHKKFGY/Nyf0RNloamhrW+13HTt2bM6cxgnXXV9X33D5uCum3Htfe/u7aXx6U2lnM5fLffHFFy++uEz/duSE666fOm3622+/c/HiRRm4LvT39z/44K8ErbOz0z+b3LFj5yOPPnb1+Gs8wt2TJr/x5ptJEE6dOvX62rVTp033gHX1DVePv+buSZP1L2wG05KZC+mPFGJms7OzUw5LXghWWEwfNKlzrkLmor+/v6Njy9Rp0/081tU3+Ouho2NLzOdd6ce9dfUN/pLI5XL79++f9fgTvqqrvv6NGb94YMeOnf5hthk+XyKAAALFCJQgLWUymXt++CO9JKxYubLCPyAghkxnozFjx3V2dl66dOmhh2fKAG+/486enp7QGopf20wNbW2rc7ncm+vX63VdevLoY7MKehNVaJ/NxhLO5unTp5/8zVP6sZz03BeuHn/NmjWvB6OnSUsdHVt6enpmzHjAnO6/nHLvfT09p8wo5Mu+vr7f/f7Zy8ddEXqu3ljbaakS5mJ4eHjLe+9df8ONml2Xr7/hxi3vvReadYJpKZvNLmldGry6xowdN79pQfCikkuCAgIIIDACgRKkpd27P/7alVfJXe+GG286fPjICLpSIafozw647bbvnTx50jm3fPkKGaCPUKG9NVlHTpFC8OGBqcfU0Na2euOmTTGLfckXhlLN5oEDB8yLs4JgCnPnzjNrm0lLT/7mqTvu/IE5S385c+YjoY8ljh49OvGuSfrImHINp6VKmIuocGNmZMzYcatWvWyuB+dcMC0tWdIajEq+tjFjx72+dq35zuJLBBBAoBiBEqSlV199Td/yfvHAL6NeYSmmo6Nzbi6XmzOnUYYza9bjg4ODzjmTIZqbW0L7Y7KO1COFQtPSjBkPxGeOkmfTksxmT8+pyZPvkVHHF/625q1evUY/jDRpKf70uvqGr115VVdXl5mRgvpQV99Qq2mpIIeU5sI5F/y9gahpverr39j24YdmNk1amjXr8dCnrVLnPT/8UdV9DKwZMl8igEBFCZQgLc1+bo7cpOrqG/IGgooav+nMuXPnpkz5sQxH3jZkPtr7/vunnj9/3pwb+qV5/0penKi89ZOf/uzQoUO5XO748eM/+cn/Sg/r6hvWrv1TaNMj21j8bGaz2aeffkb38Orx17S1rfYvGg4ODm778EPz+aU333Krfh4ZlZYEIZPJ/Oap3+omTH7NZrPzmxboA8aMHffEr588dPiwf6Gnv7+/a9euG268SY4JpqUgYKGzKTWYaS3md+IK6kMlzIVzzvzewJix4+bOnec/0D+bzXbt2mWuh+DndJi0JLP2xK+f9PXs2/fpbd+9XbaPGTtu586PxJ8CAgggUKRAsWkpuLC9+uprRfapjKfv3bv3P7453t9z/+Ob4/fu3es7k81mn/rt03IvTv45AgWtbc45s6z6Fh96eKZ+f1JXV5d+6TNvAkvuWZLZ3Lfv0/+85lva6pNPPjF9CD7wWLXqZTkm2I26+gbzJq3Dh4/orPPQwzMvXbokNZi9Y8aOe62tzbwhxlDXZFqqhLlwzi1Z0irXQ/DxlXPOXA/BD80PTUvmNdw316+XVurqG+RHHbkqKCCAAAIjFih9Wqrqm9SqVS/LDdf8VTj9sQLJ78XFp6XJk+8x72I+c+bM7XfcKf00QWHEl4JzLhhTRjCb+j1edfUNCxc261fZpHsdHVv0+070KILdMHnROWc+QdRkHTNZZq/vw1chLVXCXJjntVGvkZkpMz90BdNS8JLo7u7+1n9NkO+L51+YKxcbBQQQQKBIAdLSl4BmkTafFKAfO9XVN8hbmr48P6xUZFoKfQ/HCJb5sK6FbDMCyUOh1GV+f1A/n5NjfEH/7mFdfYN+ccp04zu33hb87C5zjM5D5kFgXX1DR8cW03rwMZ6uIXiw31LobEo9Zsr0YOWYhIXkfaiEuXDOmW+cqEeh8eMyaSn0M0rMMVENJXTmMAQQQEALlD4tmR8KdWMVXj569OhNN98iP5uaT6E0PyLLr8vFDyp+DQieW8JlNVh53i0mgtTVNxQ6m6b/t99x55kzZ0LbNQ+H9Iubphuh2cIco7NOTM26J6arugZ9mC4XOptyrmkrdERycHwheR9Mo2WZC+fctg8/lO+p5AWTdUwSSjJZ8YzsRQABBAoSKDYtmZ9fq/pd3h0dW+RurhdvD5rL5Z599g9yQMznCOgJSL62+bPMClfMsqq7kbBc/Gwm77+JOxrc7ApFMMfo5TNhH8xhuoYorkJnU+oxbYWOSA6OLyTvQ/JGDWYJ58I5Z15ik++g+AJpKf4yYC8CCIyyQLFpyTlnfosqyaozyoNM0lw2m/3d75+VO3job71t2LhRDqirb5gzpzH0HTm6ueRrmz8r+QqnWylhucjZTN7/9FbohH0whyW5bgudTZkX0xZpSX8fhZbNu454tiTXEgUEECiLQAnS0tq1f9L3u5tuvuXo0aNlGUwxjZrPCNAjiipPmfLjc+fOxTda6PpawmU1vmNRe4ucTdP/mFd/zCub+rIxQSo0W5hjdNYxfQg9/avwviXjUJa5CD5bGsHvDQQ/nVJPd9SVzHYEEECghAIlSEvmXZx19Q1vrl9fZBeHh4c3btr0nVtvq6tvuHvS5G0ffpj3KU6RLZrPn4xKSHp7zFuYpTNVl5aKnE3znqEYIvMuMR09TRIKjTvmGL18ml36dSWZF+ec+dVCXYM+TJcLnU051wSX0BHJwfGF5H2ohLlwzpkOP/vsH0bwvcyzpfirgr0IIJC2QAnS0oULF6ZOm65jxMS7JkX9JbUk48nlcqtXr9G/Xn75uCs2btqU5NwRH2N+11oPJ6ac9wdls1SYd2MEe1vCZTVYeZItRc6m+TD0uvqGqD8aaD4dR7+saeJOaLYwx+isY95hFvo7cdlsdu7ceXpmdQ1RUIXOptRjpjXmMY+cElVI3odKmAvn3MGDB//7+i//Ntxt3709+BuOUYOV7aQloaCAAAJlEShBWnLOmZWvrr7hgV8+2NvbGzqk06dPtyxafPDgwdC9zjnz1MEvaVEf0xJVSUHbgxFBr6Mx5UcefWxgYCCmreRrm6/ELKuhQSGmuZLsKnI233tvq066ob/sfezYMf3Jy+ZPl5gkFIpgjjFZx7zDzEyT/6Rv3cnQv3wSxCx0NqWGTCaj/2Ld1668KvjHPeTg+EJBfaiEuTAzVVff8H+/eqivry9+mGYvacmA8CUCCIyyQGnSUiaTmXLvfSZV/O2Pja9eveb06dP+M5TPnz/f1dX16GOzLh93RdSLI37wZj3w1cafUqSauRcvX74iqkKT5PS7bUJPMWOp/GdLzrkiZzOTydzzwx/pi8H85ZOOji3mD9GbrGPW1xGkpeBnec9+bk5fX5//0zFP/PpJ3T1fNn0oyWxKJYODg7NmPa4bvePOH3Tt2uX/fOzg4ODhw0daFi1euLBZTokqFHRFVcJcOOfMJ5H6j9favHlzJpPxr8oNDw9nMpnDh4+sX//WQw/PnN+0wAzffIcmmSxTA18igAACxQiUJi0557q7u/VfotALQ7AcH33MeuBPjz+lGALnnH4UEfyrC7pys5CbV3nML5QFBx7c0tnZqeuvhGdLxc/m1q3v67/NEhy13hJ8+GSQR5CWstns8y/M1a3kLQcX4OJnU89skl+kD4bp4vtQ9rnwnxE/c+YjeadADgg6kJb0tUQZAQRGX6Bkack5t2fPnptvuVVueTGF+Ohjnt/4etJ7Jc589LP5gyfBKTHvcNJvuCl+bauQtFTkbGaz2VWrXjYvdYVeD9dOuG7Hjp0Gufi0FPzTY8HWb77lVj2VaaelM2fOmEduwS4FU0LxV1QlzIV/T/39908NDjl0S9CBtGS+R/gSAQRGWaCUack5d/r06aeffubycVeE3gT9xrsnTd6+fbv5E6d62KP8Lu+enh79Z9fMHzzRHfPlnTs/0jlAx7ji17bKSUtFzmYul9u69X3zipu5Kn7+82lHjhwJCpckLfk3wEUFlBkzHujp6dFPMdNOS/H98TLBlFD8FeWcq4S58E+Ymptb4m8OUQ6kpeC3CVsQQGA0BUqclnzX+/r63n77nanTpn/7pn/+IZHLx11x5/cnzp/ftH///picJCMfzU8Q6Ozs1OnH/MET6ZIUzB8406/cFb+2VVRaKn42+/v7P/jgg0cefaygK6FUack5NzAw0N7+7pR77/OL9NXjr3nk0cd27NjpL8JRTkvOuWw2+7fXXoMgz81p7OrqGhwclMvMF4q/oqTCss+FXE7r1r0xddr0CdddL+l5wnXXT7xr0jPP/G79+re6u7uDDqQlmUcKCCBQFoFU0lJZRkKjCCCAAAIIIIBAGgKkpTRUqRMBBBBAAAEEakeAtFQ7c8lIEEAAAQQQQCANAdJSGqrUiQACCCCAAAK1I0Baqp25ZCQIIIAAAgggkIYAaSkNVepEAAEEEEAAgdoRIC3VzlwyEgQQQAABBBBIQ4C0lIYqdSKAAAIIIIBA7QiQlmpnLhkJAggggAACCKQhQFpKQ5U6EUAAAQQQQKB2BEhLtTOXjAQBBBBAAAEE0hAgLaWhSp0IIIAAAgggUDsCpKXamUtGggACCCCAAAJpCJCW0lClTgQQQAABBBCoHQHSUu3MJSNBAAEEEEAAgTQESEtpqFInAggggAACCNSOAGmpduaSkSCAAAIIIIBAGgKkpTRUqRMBBBBAAAEEakeAtFQ7c8lIEEAAAQQQQCANAdJSGqrUiQACCCCAAAK1I0Baqp25ZCQIIIAAAgggkIYAaSkNVepEAAEEEEAAgdoRIC3VzlwyEgQQQAABBBBIQ4C0lIYqdSKAAAIIIIBA7QiQlmpnLhkJAggggAACCKQhQFpKQ5U6EUAAAQQQQKB2BEhLtTOXjAQBBBBAAAEE0hAgLaWhSp0IIIAAAgggUDsCpKXamUtGggACCCCAAAJpCJCW0lClTgQQQAABBBCoHQHSUu3MJSNBAAEEEEAAgTQESEtpqFInAggggAACCNSOAGmpduaSkSCAAAIIIIBAGgKkpTRUqRMBBBBAAAEEakeAtFQ7c8lIEEAAAQQQQCANAdJSGqrUiQACCCCAAAK1I0Baqp25ZCQIIIAAAgggkIYAaSkNVepEAAEEEEAAgdoRIC3VzlwyEgQQQAABBBBIQ4C0lIYqdSKAAAIIIIBA7QiQlmpnLhkJAggggAACCKQhQFpKQ5U6EUAAAQQQQKB2BEhLtTOXjAQBBBBAAAEE0hAgLaWhSp0IIIAAAgggUDsCpKXamUtGggACCCCAAAJpCJCW0lClTgQQQAABBBCoHQHSUu3MJSNBAAEEEEAAgTQESEtpqFJnAQIHDny+ctVrz89raWpubXv9jd7eTAEncygCCCCAAALpC5CW0jemhWiBHTt3zW5s0v81vrDw+PGT0Wewp2QCly4N7Pu0e8vWbWvXvbX69Tffad+ya/eevr7zJWuAihBAAIFaESAt1cpMVuE4Mpm/znlhoY5KvrzkxZdyudzoDKhtzTrpwMd79o5Oo2VvZWho6P1t20PxZzc2vfnW2xf7+8veSd2Bj/fsnd3YtGzlK/39l/R2yggggMDoCJCWRseZVkIEgg+WJLicOn0m5ITUNh08dOT5eS1fkbR09mzv0uUvC3VoYf7C1oOHjqTmXXDFpKWCyTgBAQRKKlCCtJTJ/HVB81K55waXnPaOrbK3bc063X+/Svm9z89r0TdoU60/Jli5rk2X9emmZjlMjmnv2Cob4wt6LLMbm8xwnHP6gODemMpjKJxz8XtjqnXOyTBnNzYFKXSHR/ln93fat8iFYQrdBz6PH1Rp93510tLpM2fnNS0W7Vdeff34iZMXL/YPDg6eOnVm87vvya7ZjU37Pu0egbN/XDfK19II+skpCCCAQHKBYtOSX4klxPilV750zrWtWScrtF+TJEMcPHSkqfnLH2H1kbLGJ88xesymIVOzHCmvwpSklfjBSqOhhXiK+L2hFcrGeIr2jq2yqvmplC+lhvQKOz/arddmXebZUhrsF/v7mxctE+eNb78rr3geP37Sl/+yd58c8NzzC46fKOw9ZP4hEK+apTF91IkAAmUUKDYtma77FVfnIfMCx8d79kp4Muf6dV2Ci69KvjQHx3/ZtmadXvX7+y8tW/mK9Mqf65v7YNv2Bc1LR9aKj0fSkK9QJ8WYwcb331CYg6P2hobCJBRSf3vH1qjZkWNKWOiNeN9S67JVsoonbE6Cr6z0err18zO9XSoPzp3s0ufKdeKvqPaOrb7d9o6tPiVoPX8B+/7o7f4B5LKVr5w42SMPZaVmaTeNglZa1Loim81KK00LWxe1rvji+Ann3BvrNwljy5LlAwMDclh8Qb7RzFUXc1boxayvQ4lfoY9y5ccq3+EFzUszmb/Ks1j9zej70N6xVY4p5klwzIjYhQACNSmQbloy9yZ/M53d2BS6Npj75ojTUvBEf8PVd0m5rQcPLmia9apQ0GDjWzEU5uDQvbI2a9vg6IIUunK9Sunt6ZWDj5fmvLCw0OcZbWvWyeT6AQqCn2jZ60Ek4Mq4PGlwcdU1a3Zf7aLWFe0dW9s7tjY1ty5uXXno8FFJ3qYb5pmr/1IilD842Lp0rySFXbv/LBlodmPTn//yiVR77lyf3zV3/qK+vvO9vRl95IZN7XJkfEG+BfT3RfwpXlLPiHxv6hNDN0oqkumW+Qpe+b42/TDVXO0+8upGKSOAAAIiUOK0pFcU8+jF3782bGoPPubxvTFrhj9e37UTLidm5fN38A+2bZfFyf9M6VfQqLuqAMUUTIf1CpF3sDHVOudMzebgqL3BZ0tJKHTlstjojWmXP/v8kHze0mur150921tQi2YGzeobfLwXqmegfAeCGyUN+Fb8JSRJyPekbc264NJueiWn+IbMEAoafvKDWxYv199NZ8/2Dg5mh4aGTp48tWLVq7Jr1+49zrmmha2yZXZj07lzfXkb0lz6eyHviSa16Hrk3CCp32UaEkl/vE9R+hpoW7NOHi6ac6UtCggggEBQoJRpyd+hdCiR+5HcsKLuev42J88Agh31C4z8EBk8QLbI3Va3JR2QR/e+Krm9yul5C3659WuJ7k/ywcY3EU8Rv9fUnJdCH+/HJWuJ3lXJZT9GmQg96T6vm4sqdMYFSo9UspFslKtItyKLva+5bc060yV/uq5Nl80FKW2VvNCy5N/TUm/m1OkzOhL58t5PPnXOLWh5Ue9Kkpbk+jc/JuUdiJkRg+NP1+BSoTnROacPk2Aktw69V16G04+1pGYKCCCAgBEoWVryd6LZjU36CZC/gW7Y1C4rlrlh+d74u56OWaaXch/Utzb9Jgz96p5fq8wbkmSdM7fyqBuuXir0iHTH/FhkaAkHq2sIluMp4vcGa8tLIaf4qKR5ZVfahQsXLhw9+sWRo8eOHD32xRcnBgcHC21RPxIzj470Eu6r9YYmFIamJXOB+UvCX6X6Mo5KS+aykcP0o03dJQl8hQ4/4fFdu/foq3p/92fOuZdebtMbmxa2DgwMXLhwUW9cv+GdvE3o7y/zLZb3XH28hw1SaHCp0M+a7qov+8n1L7plMn9d9cfVGza1yzM/Xbn+ycdcEtIKBQQQQMA5V7K0JG931az+pzq9BsekE7O66Hp8WS+Kwb2yxTdhcpv8wGpu68H+SD1JCnqVTTLY+Dr9kmB6LqfE75XDdCGeQo70o5DYJ9tTLZw717fx7b/H6OBq9+KKVzp3dg0NDyfpgLBIPfpCikpLesmUt7/oE4OZRndGL94Sg7y2PFuKqU2uRl9nkReh7lhMOZfLtb74kiitemX18PDwxYv9EgqbFy07efKUc+7dLe/LYc/Pa+k7n+fTvYP9D7LHdMy/9OxjqPn1TzlLg8vGYLuyS6bv0OGjbWvWfbr/gLyxzMyLP8UjEJg0IGUEENACpUlLoVEpdBEyYUWWutBbmO6oLEV6Y1TZ3Kz1rVbWBlkPpGBW0KjK9XadlnTZH2MGq08MluMp4vf62oLvW9I/tftjNIXfUpaodOJkz1z1qT8yBbqwctVr+pe2gmJ+SzxycG9wS+iFqpfwYNOaMZiW9F5/rtlSlrTknOvpOaU/v3vDpvahoSHn3PnzF44cPTY4+PdfkTOPoD7Ztz84fLNFP6HRM5j8cwS8j3/LvP7hShoygKGqcrAvfLxn74LmpR9s2y5PlT7Ytn1x60r9oW76FHPT0LsoI4AAAiVIS1FRyePqB0J+YZZQ4u+AUY9S9Nz4I5M//DAN6T7oaot8y4gPcPrmrhsyfTDtmi/jKeL3+qp8Z/Qrkn676YbuoaSE5LCm2yP7cmBwUH/qj1lf9ZcbNm7O24QfYFTa9nQyR1GZO7SSmKvO75JXfPxzEV25eUFQEpUfTrnSksy4IDcvWta1e8+Zs70XLlzY+8mnL/9xjeya3dj00a6P8/qHHjCC5NHesXVx68rFrStDp1KD6xa9s9xS9C4/p3J78Y9+5VLv77/Utmad/7gBuQ/wbEkDUkYAAS1QbFqSW5K+ycodyrekH+fo+1roj6Ty7iVTc6E3Mn263CL1yH3Zr3C6V8Fj9BY9FjNMf5g+IHm18RTxe6V7oc+WzAJpKHRvZQYlW0jNpS28v227tJW30HPqdN7W/UKoq9JD8Aut7NWTIhFT9s5ubIon8tehXrwlCem0JL/Y6Gs2dZYxLflkkPcvn8xbsDjqGUze6Qg+0Uxyiv+GNVC+Kj07vqwTlf5O159W76dDKvSH6QvDzL6+MJJ0mGMQQOArJVBsWvpKYTHYkggsXbYquP5FbXl/2/b4Rn1UCi6fhcbr+FZqbO/Q8HDMX9V9Y/2mCxcv1tiQGQ4CCCBQjABpqRg9zh2JQOPc5qhsFNy+dt1b8W2Y1xZ5VSWeS++9dGlg36fdb2/esmTpygXNS9e9uXHX7j19fXne061roIwAAgh8RQRIS1+Ria6gYS5b8UowFUVt6djyQXzXg8+W/MuL+mlTfA3sRQABBBBAIF6AtBTvw94qEDDvW5K3qlRB1+kiAggggEA1CJCWqmGW6CMCCCCAAAIIlE+AtFQ+e1pGAAEEEEAAgWoQIC1VwyzRRwQQQAABBBAonwBpqXz2tIwAAggggAAC1SBAWqqGWaKPCCCAAAIIIFA+AdJS+expGQEEEEAAAQSqQYC0VA2zRB8RQAABBBBAoHwCpKXy2dMyAggggAACCFSDAGmpGmaJPiKAAAIIIIBA+QRIS+Wzp2UEEEAAAQQQqAYB0lI1zBJ9RAABBBBAAIHyCZCWymdPywgggAACCCBQDQKkpWqYJfqIAAIIIIAAAuUTIC2Vz56WEUAAAQQQQKAaBEhL1TBL9BEBBBBAAAEEyidAWiqfPS0jgAACCCCAQDUIkJaqYZboIwIIIIAAAgiUT4C0VD57WkYAAQQQQACBahAgLVXDLNFHBBBAAAEEECifAGmpfPa0jAACCCCAAALVIEBaqoZZoo8IIIAAAgggUD4B0lL57GkZAQQQQAABBKpBgLRUDbNEHxFAANEE/LQAAAOBSURBVAEEEECgfAKkpfLZ0zICCCCAAAIIVIMAaakaZok+IoAAAggggED5BEhL5bOnZQQQQAABBBCoBgHSUjXMEn1EAAEEEEAAgfIJkJbKZ0/LCCCAAAIIIFANAqSlapgl+ogAAggggAAC5RMgLZXPnpYRQAABBBBAoBoESEvVMEv0EQEEEEAAAQTKJ1BsWur+/Av+QwABBBBAAAEEalig2LRUvpxHywgggAACCCCAwGgIkJZGQ5k2EEAAAQQQQKB6BUhL1Tt39BwBBBBAAAEERkOAtDQayrSBAAIIIIAAAtUrQFqq3rmj5wgggAACCCAwGgKkpdFQpg0EEEAAAQQQqF6B6khLOf4hgAACCCCAAAJlEih/WirTwGkWAQQQQAABBBBIJDCqaSlRjzgIAQQQQAABBBCoJIHU01IlDZa+IIAAAggggAACBQukkpYK7gUnIIAAAggggAAClSpQyrRUqWOkXwgggAACCCCAwMgFSpCWRt542JnD/EMAAQQQQAABBCpJoKi0FJZ2CthWSQ70BQEEEEAAAQQQCBcYYVoqIBOpQ8O7wFYEEEAAAQQQQKCCBQpOSyr8JCqWfOxD/EMAAQQQQAABBEZRoIC0lCgc/eugEYSkURw1TSGAAAIIIIAAAkkFEqWlf0Wg/P9PHpKSdpDjEEAAAQQQQACBsgrkT0v5I9I/jkiSk8o6UhpHAAEEEEAAAQRGIpAnLSWJSvE5aSSdGhrK8g8BBBBAAAEEEKgMgci0VGROShiSKgOBXiCAAAIIIIAAApEC4Wkpb1SKeZ6UNydF9iV6xyD/EEAAAQQQQACBMgmEpKX4qDSynBQdhL7cUyYBmkUAAQQQQAABBOIEbFoaWVSKep70ZRQKlOI6FbFvgH8IIIAAAggggMCoC/xbWhpBVCo0J0UEoX9uHvXh0yACCCCAAAIIIJBH4Mu0FBOVQl99S56TYhJSnt6p3Zf4hwACCCCAAAIIlEPgn2mpJFEp8GpbNjQnqQhki+UQoE0EEEAAAQQQQCBOIE9aSvhUKUlOssnoH1/HdS2wr59/CCCAAAIIIIDAqAv8PS1FPVgKRqXgq295c1IwJAVS0L9tGHUBGqwggdCHkWxEAAEEEECgvAKXlTAqmZEMDAxks9nh4WHfhOMfAggggAACCCBQhQLhaanQp0rBnDQ0NFSFGnQZAQQQQAABBBCwAv8PsLRjecNcX0MAAAAASUVORK5CYII=;imageBorder=default;" vertex="1" parent="1">
          <mxGeometry x="140" y="70" width="783" height="177" as="geometry" />
        </mxCell>
        <mxCell id="3UD2lBTm2U6b-ysUh9K5-2" value="" style="shape=image;verticalLabelPosition=bottom;labelBackgroundColor=default;verticalAlign=top;aspect=fixed;imageAspect=0;image=data:image/png,iVBORw0KGgoAAAANSUhEUgAAAvsAAACvCAIAAADsY4bRAAAgAElEQVR4Ae2d/XtUVZbv+09Knqg8dj/20z16ndt61VHb64zajcLYrSNzx+FlHG/bqNittvbYCAIGEjDKi/gWkEZRUGMwCg+B5m1EIKi8CSRASkIokiK1p3Hr6uU6p06qcqoq51R98uSHXfvsvfban7XP3t/a56V+kOcPAhCAAAQgAAEI1DqBH9R6B+kfBCAAAQhAAAIQyKN4GAQQgAAEIAABCNQ+ARRP7ceYHkIAAhCAAAQg8APHHwQgAAEIQAACEKh1AiieWo8w/YMABCAAAQhAwDkUD6MAAhCAAAQgAIHaJ4Diqf0Y00MIQAACEIAABFA8jAEIQAACEIAABGqfAIqn9mNMDyEAAQhAAAIQQPEwBiAAAQhAAAIQqH0CKJ7ajzE9hAAEIAABCEAAxcMYgAAEIAABCECg9gmgeGo/xvQQAhCAAAQgAAEUD2MAAhCAAAQgAIHaJ4Diqf0Y00MIQAACEIAABFA8lR0D/f39Tz319GUTLr/yqquXLl02NDRU2fawXjSB0/39d/xiYkNjk/9/8MHfZLPZ6NpJiGYSfIimxFEIQAACySSA4qlgXLLZ7MyZD8ua2tDY1Lp4ST6fr2CTmC6aQKmKJwnRTIIPRQOmIAQgAIFkEaiI4hkZGdm/f39L6+JJk//5ih//RJb8f7jx5qnTpr+5Zk1vb2/CF/7Tp0//cuKd4rlP/HLinadPny4+gAc+//xn11yrjUy8c1ImkyneQhJK1kA0QzGWqnjiR/PMmTPd3d3Pzpk7bfqM0/39oV5FZ8b3Ido+RyEAAQjUMIEyK558Pr979+67Jk3Wy3ww/bNrrj3w+edJxtrd3X3JpROM5z/80RU7d+4q3u20r081E83QkFVT8WQymXvuvU+G0x2/mIjiCQ0KmRCAAAQqR6CcimdoaOj555uDQkEmekkkX/G0tLSKtzqxbNny4oOR6msQtRTN0JCVqnjiRNO0NWbFE8eHUAhkQgACEKgfAmVTPLlcbv78BVocRKQTrnjOnj17//1TQ/2fOm364OBg8eMjpfeZ1lI0CwXLqJCK3rls2hqz4nHOpXREFYoC+RCAAASqRqBsiufNNWvM7s6VV1398ssrjx8/PjIy4pwbGRnJZDI9PT3Lli2fNn3G559/UbVOltqQvhr1s2uunfKv/ybqJ+FardSeFipfS9Es1EejQopRPIVMjZpv2oqjeEZtiwIQgAAEIBBKoDyK59ChwzfdfIvIgobGpsmT7z527Fhok8nPbG9fJX25//6pH3zwgRZz765fn/wuxPGwxqJZCIVRISieQqDIhwAEIFAbBMqgePL5fOviJSIRGhqbrr/hxp6enpQCGh4enjXrMelOS0vriRMnbr31nyTnyT88lcvlQntnFlGpIonZz84JrSiZxkJ7+yp/6OjRo3PmzL3m2usaGpsum3D5Pffe19HxYSXe7lPeaObz+a+++uqll5bqp/auufa6qdOmv/fe++fOnZOO60Q2m33wwd8ItO7ubr9HuHXrtocfefTKq672EO6aNPmtt98uBkJfX9+ba9ZMnTbdA2xobLryqqvvmjRZP0gYVDwmFuKPJCKi2d3dLcWKTwQNxvFBI3XOJSQW2Wy2s3Pj1GnTfRwbGpv8eOjs3BjxPiS97drQ2OSHRD6f379//6zHfudNXfHjn8z4jwe2bt3mN5VN9/kIAQhAoAyKJ5PJ3P2rX+tpffmKFQl/+Dwi8FrfXHLphO7u7vPnzz/025nSwdtuv6O3tzfUQvz1yVhob1+Vz+ffXrdOr83iySOPzirppqJQn01mGaN58uTJx594Um+Piec+ceVVV69e/WZQPhrF09m5sbe3d8aMB0x1//Gee+/r7e0zvZCPAwMDf/yvZy6bcHloXZ1Z24onCbEYGRnZ+NFH111/g8au09ddf8PGjz4K1StBxZPL5V5oezE4ui65dMLzzQuDg0qGBAkIQKBuCZRB8ezcueuHP7pCZq7rb7jx0KHD6QWqn0u/9dZ/OnHihHNu2bLl0kEvg0I7aPSKVJFE8Eu8sWMstLevWr9hQ8SCXfbJvVzRPHDggLnQKRBMYv78BWZ9Morn8SeevP2OX5pa+uPMmQ+Hbg8cOXJk4p2TdMmIdA0rniTEopBAMRG55NIJK1e+YsaDcy6oeF54oS0od7y1Sy6d8OaaNebM4iMEIACBMiie119/Q09b//HAfxa6WpF83Pl8fs6cudKdWbMeGx4eds4ZHdDS0hraF6NXxI4kSlU8M2Y8EK0byq4vyxLN3t6+yZPvll5HJ/66bq1atVpvChrFE129obHphz+6Yvv27SYiJfnQ0NhUq4qnJA4VioVzLngvfKGwXvHjn2zavNlE0yieWbMeC931FJt3/+rXqXvVp+kyHyEAgbITKIPimf3sHJloGhqbRl3Uy96HMho8c+bMPff8i3RHbqMxr2C+//6pZ8+eLaZdcz/HqHAKaaYp//pvBw8ezOfzx44dmzLl/4mHDY1Na9b8uRhPiiwTP5q5XO6pp57WHl551dXt7av8Bbjh4eFNmzebd1TedPMtel+wkOIRCJlM5okn/6CbMBo0l8s937xQF7jk0gm/+/3jBw8d8hdNstns9h07rr/hRikTVDxBYqVGUyyYsMZ5VqskH5IQC+ecuRf+kksnzJ+/wL94PZfLbd+xw4yH4DsgjOKRqP3u9497O3v37rv1H2+T/EsunbBt21+EPwkIQAACzrm4iie4OL3++hvpJbtnz56f/t1Vft786d9dtWfPHt+XXC735B+ekvm0+GfUS1qfnHNmafQtPvTbmfp+ne3bt+vLiKOqqOLDUZZo7t27739d/fea1WeffWZ8CG48rFz5ipQJutHQ2GRuWjp06LDWKw/9dub58+fFgjl6yaUT3mhvNzeIGNQ1qXiSEAvn3AsvtMl4CG4jOefMeAi+3DxU8ZjroW+vWyetNDQ2ydcVGRUkIACBOidQfsWT6olm5cpXZNI0v6KlH1kvfj6Nr3gmT77b3Jl76tSp226/Q/w0i32cAR2UGmOIpr7nqaGxadGiFn3FStzr7Nyo78PQvQi6YTSfc868JdLoFRMsc9T7UA+KJwmxMPumha43mZCZL05BxRMcEj09PX//v6+R8+K5efNlsJGAAAQgUJE9njGskQmJhFlozVPoevunobFJbvGJdj6m4gm9p2EMS3W0k3LUEChe2IkF81yb3ieTMj6hn4lraGzSF3qMGz+/5dbgu51MGa1pzIZcQ2NTZ+dG03pwO01bCBb2OaVGU+yYkOnOSpkiE8X7kIRYOOfMiVNoSzK6X0bxhL7/wpQp1FCRnCkGAQjUHoHy7/GYL2cpQnbkyJEbb7pZviOaNw2ar6ryGFd0B6Pn8WDdMi6NQeOj5hgZ0dDYVGo0jf+33X7HqVOnQts1mzT6QqFxI1QfmDJar0RY1p4YV7UFXUynS42m1DVthfZICkcnivfBNDousXDObdq8Wc6p4hNGrxg1U0ywojFyFAIQqEMCcRWP+R6Z6juXOzs3yoysF2A/LPL5/DPP/EkKRDyjrodR8euTr2VWqThLo3ajyHT8aBbvv5EsGrg5FArBlNFLYJE+mGLaQiFcpUZT7Ji2QnskhaMTxftQfKMGZhlj4Zwzl6vkDIpOoHiihwFHIQCBMRCIq3icc+bpnmJWjjE4WukquVzuj//1jMzCoU9jvbt+vRRoaGyaM2du6B0q2tXi1ydfq/hVSrdSxnTMaBbvf+VW2SJ9MMWKGbelRlPiYtpC8ejzKDRt7sJhj0fGEgkIQGDMBMqgeNas+bOes2686eYjR46M2aHxqmieP9c9KpS+555/OXPmTLTDpa6RZVwaox0rdDRmNI3/EVdSzFVCPWyMGArVB6aM1ivGh9Dq9XAfj+EwLrEI7vGM7T4/FE+hE5Z8CECgeAJlUDzmzsSGxqa3160r3oPQkiMjI+s3bPj5Lbc2NDbdNWnyps2bR91NCbVTfKZ5x2AhlaPzI27LlXZTp3hiRtPcQxOByNw1peWjUTOhksWU0YrHHNLXaCQuzjnzyJu2oIvpdKnRlLpGfIT2SApHJ4r3IQmxcM4Zh5955k9jOJdRPNGjgqMQgEAxBMqgeAYHB6dOm66lwMQ7JxX65alifMrn86tWrdaPLl824fL1GzYUU3fMZcxzvLo7EelRv7Ca6d7cnRD0toxLY9B4MTkxo2leWt3Q2FToR9bM21P0JUIjWUL1gSmj9Yq54yr0Wa1cLjd//gIdWW2hEKhSoyl2TFgjtlukSqFE8T4kIRbOuS+//PL/XPe339K69R9vCz55V6izko/iERQkIACBMRMog+JxzpnVq6Gx6YH/fLC/vz/UrZMnT7YuXvLll1+GHnXOmW//flkq9BqPQkZKyg8u83otjEg//Mij0b/dXfz65B02S2PoYl9S18ZQOGY0P/qoS6vV0AeJjx49qt+Qa34mwqiZUAimjNEr5o4rEyb/RmbtZOivTATRlRpNsZDJZPQvfP3wR1cEf0hBCkcnSvIhCbEwkWpobPr/v3loYGAgupvmKIrHAOEjBCAwBgLlUTyZTOaee+8zyuCvP5K8atXqkydP+nfdnj17dvv27Y88OuuyCZcXutDgO2DmdG82usoYeq6rmPl02bLl+qhOGzWm7z7RxSRt+pL8PR7nXMxoBn993fzKRGfnRvMD2kavmDVyDIon+M7l2c/OGRgY8D/T8bvfP27GaqUVz/Dw8KxZj+lGb7/jl9t37PA/mTk8PHzo0OHWxUsWLWqRkVMoUdKISkIsnHPmbZP+9UsffPBBJpPxV7hGRkYymcyhQ4fXrXvnod/OfL55oem+OUPNgDGF+QgBCEAglEB5FI9zrqenR7/1X0/uwXS0fDFzuq8eXSW0b8Vn6i2B4BvutR2zGJsrJuZBp2DHgznd3d3afhL2eOJHs6vrY/07GMFe65zgJpCBPAbFk8vlnps3X7cyajq4iMaPpo5sMQ9pBwVxfB/GPRbOuWw2O3Pmw6OGQAoEOaB49FgiDQEIjI1A2RSPc2737t3RP/QtM1q0fDH7KL5W5a5qmVf0mh+XCGI1d/zoG1Dir08JUTwxo5nL5VaufMVcNpLo68TPrrl269ZtBnJ8xRP8qSbdqE/fdPMtOpSVVjynTp26+1e/Drqhc4IrffwRlYRY+PvE779/qu5sRDrIAcVjzhE+QgACYyBQTsXjnDt58uRTTz192YTLI6azuyZN3rJli/lZR+16le9c7u3t1T9TZX5cQjvm09u2/UWv5VqKxV+fkqN4YkYzn893dX1srl6ZUfHv/z7t8OHDQcJlUTz+hrBCImPGjAd6e3v1bmKlFU+0P55McKWPP6Kcc0mIhd/paWlpjZ4cCnFA8QRPE3IgAIFSCZRZ8fjmBwYG3nvv/anTpv/Djd/+aMNlEy6/4xcTn3++ef/+/RFaR7yv5tPp3d3dWsGYH5cQlyRhfhBKXwWLvz4lSvHEj2Y2m/3kk08efuTRkkZCuRSPc25oaKij48N77r3PL7RXXnX1w488unXrNj8Iq6x4nHO5XO6v1zGDQJ6dM3f79u3Dw8MyzHwi/ogSg+MeCxlOa9e+NXXa9GuuvU4U8DXXXjfxzklPP/3Hdeve6enpCXJA8UgcSUAAAmMmUBHFM2ZvqAgBCEAAAhCAAAQqQQDFUwmq2IQABCAAAQhAIFkEUDzJigfeQAACEIAABCBQCQIonkpQxSYEIAABCEAAAskigOJJVjzwBgIQgAAEIACBShBA8VSCKjYhAAEIQAACEEgWARRPsuKBNxCAAAQgAAEIVIIAiqcSVLEJAQhAAAIQgECyCKB4khUPvIEABCAAAQhAoBIEUDyVoIpNCEAAAhCAAASSRQDFk6x44A0EIAABCEAAApUggOKpBFVsQgACEIAABCCQLAIonmTFA28gAAEIQAACEKgEARRPJahiEwIQgAAEIACBZBFA8SQrHngDAQhAAAIQgEAlCKB4KkEVmxCAAAQgAAEIJIsAiidZ8cAbCEAAAhCAAAQqQQDFUwmq2IQABCAAAQhAIFkEUDzJigfeQAACEIAABCBQCQIonkpQxSYEIAABCEAAAskigOJJVjzwBgIQgAAEIACBShBA8VSCKjYhAAEIQAACEEgWARRPsuKBNxCAAAQgAAEIVIIAiqcSVLEJAQhAAAIQgECyCKB4khUPvIEABCAAAQhAoBIEUDyVoIpNCEAAAhCAAASSRQDFk6x44A0EIAABCEAAApUggOKpBFVsQgACEIAABCCQLAIonmTFA28gAAEIQAACEKgEARRPJahiEwIQgAAEIACBZBFA8SQrHngDAQhAAAIQgEAlCKB4KkEVmxCAAAQgAAEIJIsAiidZ8cAbCEAAAhCAAAQqQQDFUwmq2IQABGqTwBdff7S9b+Xm46381zOBrb1L92U2ZC9kanOU126vUDy1G1t6BgEIlI/AwHDvK/vvfm7nFfxDwBNY/OkNxwc/Ld8Qw1LFCaB4Ko6YBiAAgbQTGB7Jtu25hZUeAobA/F0/PZk9kPbhXT/+o3jqJ9b0FAIQGCOBD4/+ySx1fISAJ/DyvrvGOKqoVnUCKJ6qI6dBCEAgbQSW7/0FCzwEChEYHjmXthFdp/6ieOo08HQbAhAonoBZ6ur5pl36vvl4a9uen+shcWxwd/FjiZLjSADFM47waRoCEEgHAb28PbfzinQ4jZcVI/DGgSl6SBw5u61iTWG4nARQPOWkiS0IQKAmCejlDcVTkyEuqVMonpJwJacwiic5scATCEAgoQRQPAkNzDi5heIZJ/Bxm0XxxCVIfQhAoOYJoHhqPsQldRDFUxKu5BRG8SQnFngCAQgklACKJ6GBGSe3UDzjBD5usyieuASpDwEI1DwBFE/Nh7ikDqJ4SsKVnMIonuTEAk8gAIGEEkDxJDQw4+QWimecwMdtFsUTlyD1IQCBmieA4qn5EJfUQRRPSbiSUxjFk5xY4AkEIJBQAiiehAZmnNxC8YwT+LjNonjiEqQ+BCBQ8wRQPDUf4pI6iOIpCVdyCqN4khMLPIEABBJKAMWT0MCMk1sonnECH7dZFE9cgtSHAARqngCKp+ZDXFIHUTwl4UpOYRRPcmKBJxCAQEIJoHgSGphxcgvFM07g4zaL4olLkPoQgEDNE0Dx1HyIS+ogiqckXMkpjOJJTizwBAIQSCgBFE9CAzNObqF4xgl83GZRPHEJUh8CEKh5Aiiemg9xSR1E8ZSEKzmFUTzJiQWeQAACCSWA4kloYMbJLRTPOIGP2yyKJy5B6sckcODAFytWvvHcgtbmlrb2N9/q78/ENEh1CJSdAIqn7EhTbRDFk9LwoXhSGrgacXvrth2z5zbr/7nzFh07dqJGupfsbpw/P7R3X8/Grk1r1r6z6s233+/YuGPn7oGBs8n2eny8Q/FUhPvgYPaJJwanTLn4P3XqhU8/rUgrFTCK4qkA1GqYRPFUgzJthBLIZL6eM2+Rljs+/cJLL+fz+dAqZc9sX71WHNi1e0/Z7SfT4IULFz7etCUU/uy5zW+/8965bDZRnu/avWf23OalK17NZs+Pi2Pjoniy2fNLV7zavnqt7rLPnD23uZaGa66rawyKZ+i11wYffDDf16f5VCeN4qkO57K3guIpO1IMFksguMEj4qPv5KlirZSj3JcHDz+3oLWWlpAIKqdP97+47BVBHZp4flHblwcPRxip8iEUjwCPUDyZzNcLW17s6OySwlVI5Pv6Bh988Nt9mm92a7JPPOEGB0tqGsVTEi4Kj5lAGRSPP81k3gwuGx2dXXLUfF/xK40/+tyCVj3JGrO+TNB4oZ7r6sayVJEyxc8Rui+z5zab7jjndIHgUWk6mIhA4ZyLPhq0pnOkm7PnNgdRaIer/B36/Y6NMjBMoufAF7oLlU7Xj+I5eer0guYlQvvV1988dvzEuXPZ4eHhvr5TH3z4kRyaPbd5776eMZD322ZVHktj8LOkKuXa4xG9ojkXYhW6xxPhtj/Ti5/NIkwVf8grnqHXXvu2ir9QVeIlKhRP8cApGYdAXMXjzzERIn75lI/OufbVa2WV9euK6IAvDx5ubvnbV0ld0jkX5+w1DRnLwkuuaIxtjjCtRHdWGg1NRKOIPhpqUDKNkwZFR2eXzLYeuHwUC5VLbPvLTj3v6zR7PJXAfi6bbVm8VDivf+9DuXp47NgJn/50z14p8OxzC48dL+2eKr8ZM75XoCqBrryKp8izLJWKxzmvgfROz0VB42/WmTLl/Lx5wQAVUjzf20D67gLW9zK/M3vR/ncFLtqv8B1CXNUKBjEVOXEVj+mkXzW1pjEXC3bt3iMCyNT1a7OIjziKp331Wj2nhE4cvrlPNm2Jsw+sG/IGtdqL6Kzpu/loUBR51KgZX0t76JwLRSH2Ozq7CkVHypQx0V/gPp62pStlJS6yORGvslrLICxm4y0YO2lX74HJ4PQYOzq7fLsdnV1+pdf0/AD2/uh878/SFa8eP9G7sOVFX0AsS7uVSGhKi9uW53I5aaV5UdvituVfHTvunHtr3QbB2PrCsqGhISkWnZDRZUZdRK3Qoa7HoUio0C1V+WrkHV7Y8mIm87XsieqT0fvQ0dklZYoZGOJ5NRWPDpPutcdbaERJyHSiCuPK7vF8g+ziHTbfbfPotC8cFD2hiufCp58OTp0qu0fn5837nqZxrtB9PKYV7YAENGYCxRMT4HhVr6ziMfOLnLGh56GZ+8aseIIV/aSpZzqZmoOFS4qEntlL6mx0KwaFKRx6VNZXzTbYuyAKbVyvNDq/cungNs+ceYtK3VdoX71Wgus7KBB8oOWoB6LVsO+aRxpcILVljd2bXdy2vKOzq6Ozq7mlbUnbioOHjoh6Nm6YvU//UWSQLxxsvbzYd+z8b70W/venn4n9M2cG/KH5zy8eGDjb35/RJd/d0CEloxNyCujzIrqKJ6kjIuemrhiaKcpGwi3xCo58b01vaprR7mWrblSnq6N4DI1CvS70VapQr3VHyp4uqHimTMl1dQWPhoqb0Mzz8+bpjaKgqUKKx+Z/s98TlFlxUKB44tAbx7plVjx6VfBXeWQu82fjuxs6gk8f+P6bed+X1zNvkUuCWb38LPzJpi2ywPjvdn4VjDNHGIf1LD9qZ6NDbiybwoWOBvd4ikGhjcuCoTMrnf78i4PyPp43Vq09fbq/pBZNBM2aEVwbQukZUN6BYKas6L4VP4REzXhP2levDS5Uxiup4hsyXSip+8UXbl2yTJ9Np0/3Dw/nLly4cOJE3/KVr8uhHTt3O+eaF7VJzuy5zWfODIzakMalz4VRKxrloe1I3SBSf8g0JCR9ea+E9BhoX71WNv9MXWkrNFEdxaNdjdiRNcXEYem+5FQhERQizrmLCuYbxROUMn7nJtf1vdurg8VCzAaEi1U2vreBYs45I57iY0HxxGc4LhbKqXj8LKOFhcwpcooWmrn8uSrfxYMs/CIhX+aCBSRHZkzdljgg2+De1BjmCL9k+vVA+1N8Z8XV0EQ0iuijxuCoKHR53y9ZD/ShJKd9HyUQOuhec5tBFRpxAaV7KvpGMmUU6VZkwfaW21evNS756tqaTpsBKW2VPdH6wvcVT3+m7+QpLWt8es9n+5xzC1tf0oeKUTwy/s1XnVE7YiJi4PjqGrgYNBWNRBBxI1OHMeLz5SuZmA1NlFfxaLb6upVmaLqjvZJxqDOrNpBMoyHSxF9v+kbxXBQl+lab79KjKh4vjIJ19VZNqOLx/gQr6u0i04UxfETxjAFaEqqUTfH42cS8JcKfwO9u6JBVx0w6HoGfubRUCqLxFfX0ZK52y5rn1xtzg46eI/S0UmjS1FNSob0l75J0rcjOBrumc6JRRB/Vdnx6VBRSxcsdjVcOVToxODh45MhXh48cPXzk6FdfHR8eHi61Rb01ZbZwdKy9Wc/QCLtQxWMGmB8SfpTqYVxI8ZhhI8X0FqN2SQZwqd0vsvz2nbv1qN7f87lz7uVX2nVm86K2oaGhwcFzOnPdu++P2oQ+v0pVPLq8BxtEoYGLMz5q2lWf9sH1F7Ayma9Xvrbq3Q0dsvemjetvL2ZISCs+UV7FU+hEM8M1tNfOOUNbXA3OZnKocolQxSP33AQ3b0I9CRYLNWvqhioef8+yFkamVlk+onjKgrH6RsqmePzyoGcTuTFQn97Bc9Kf1UYqhYLQC1toAZ/pmzAG5YujmSyC/kRYDh7SK2XwK2OpxqNRRB8N+ibf+QqhkCq+FyLdJL+iiTNnBta/d1EKB1esl5a/2r1t+4WRkWIcECxiR0sNs4QIEzNQdRylURkzkiMJ36isrF4G+XDLHo92w6gcY7nUcSJulJTI5/NtL70slFa+umpkZOTcuawIu5bFS0+cuPgytw83fizFnlvQOnB2lLcwB/0PYo92Vc5K81ii1NLAJTPYrhwS4AcPHWlfvXbf/gNyo5WJi6/iIUSIHhSPZqvTQWnit2e85gi9hqWr+3RQ8RQjXEJqfWOu7Newgg6jeIJMUpFTHsUTKnfkvkI9xcjU5unIcqXLhIKT5ST0qMk0E66eLmV+lzldEmYVNDZDP+qVUqd9YdPZUAuSGY0i+qg3EryPR3979mU0Cp8zLnLn+Ine+eqtMBICnVix8g39MJGAMoloyMGjwZzQgRrxTdpcbpDNGxmiQcgmZ1wUj3Out7dPv2f53Q0dFy5ccM6dPTt4+MjR4eGLj26ZraDP9u43wIMf9U6JjmDxz6h7Pv42cP0FSdoyAH1+aKZU2bV7z8KWFz/ZtEV2dz7ZtGVJ2wr90i8pHDxT9CHnXHUUjxkYHmxQh4WOYTMsjf+V+2gUz7dXo9SD4hf3e757bquQG6Ha5WLmlCnyrFawrpZW+mihfF0mZhrFExPgeFUvg+IpJHd8l/TGjF9cRVj4CcvsQISC8CWL34QwDWkfjP3or4mmsPno6+oJWjdkfDB1zcdoFNFHvSnvzOy5zYLX5xs3tIey0hcP1rg9to9Dw8P6rY2J9YkAAAb0SURBVDBmjdQf313/wahN+A4WUswencRIRIkxG2okYtT5Q4X2eLxa0gNbVJFv1yxscQah6cioH31PBXLL4qXbd+4+dbp/cHBwz2f7XnlttRyaPbf5Lzt2jWowtID5yhFaxmR2dHYtaVuxpG1FaCg1cF3RawIz5n0B6ak36LdgZahns+fbV6/1j7LLzl9QW0hb1VE83mffHb/ddfHndb//KxPRWjz0a4/0ohIJr3j0fTPmHh333W09UkZuqflWHn13c48vIEedc7ZAQDl5VfStZSWzivEqDg0UTxx641g3ruKRaUVPlHqu91+e5Kiem0K/GsrdPMZy8LSPpqaryzQXrFLqYmO2iIKzsy6gOxtsWudEo4g+KnYKTXYRKLS3EiPRB2K5vImPN22RtkZN9PadHLV1v5hpU7oLfrGUozooIhPl6Oy5zWa0GER+HOoFWNSMkVM6asbmOCoev7qP+isTCxYuKbQXMmo4Rt0vCbXgR6kBZWYPCZM+7/Tw1m8V9+EQg76YHhgm+npgBD0sr+KRjviE9kqGjfdc7r+W7ycRdWWbR8pEdyrYTXKKJIDiKRJU0orFVTxJ6w/+JJ/Ai0tXyow8auLjTVuie+TlTnAJLFUiR7dSY0cvjIxE/JLoW+s2DJ47V2NdjtmdcimemG5QPSEEUDwJCUSpbqB4SiVG+bgE5s5vGVXoSIE1a9+Jbs9cpyvmCkW0wfo5ev780N59Pe99sPGFF1csbHlx7dvrd+zcPTAwyn3K9cNH9xTFo2mQRvGkdAygeFIauBS7vXT5qyJoRk10bvwkuqvBPR5/HUrv+kRb4CgERiWA4hkVUV0VQPGkNNwonpQGDrf/RsDcxyO3bvytBCkIxCOA4onHr9Zqo3hSGlEUT0oDh9sQgED1CKB4qsc6DS2heNIQpRAfUTwhUMiCAAQgoAmgeDQN0iielI4BFE9KA4fbEIBA9QigeKrHOg0toXjSEKUQH1E8IVDIggAEIKAJoHg0DdIonpSOARRPSgOH2xCAQPUIoHiqxzoNLaF40hClEB9RPCFQyIIABCCgCaB4NA3SKJ6UjgEUT0oDh9sQgED1CKB4qsc6DS2heNIQpRAfUTwhUMiCAAQgoAmgeDQN0iielI4BFE9KA4fbEIBA9QigeKrHOg0toXjSEKUQH1E8IVDIggAEIKAJoHg0DdIonpSOARRPSgOH2xCAQPUIoHiqxzoNLaF40hClEB9RPCFQyIIABCCgCaB4NA3SKJ6UjgEUT0oDh9sQgED1CKB4qsc6DS2heNIQpRAfUTwhUMiCAAQgoAkYxbP5eCv/9Uygbc/P9ZA4NrhLjxbSiSWA4klsaHAMAhBICoHl+ybqFY40BDSB8xfOJGWk4kckARRPJB4OQgACEHCu8+hsvcKRhoAQeHnfJE6RtBBA8aQlUvgJAQiMG4HhkXNte/6vLHIkIOAJzN/101PZz8dtXNJwiQRQPCUCozgEIFCXBM5d6H/n0KOs9BAQAi/vm9R3rqcuz4a0dhrFk9bI4TcEIFB9AmdzfZ+e/nM937RL3zcfb91x8rVT2QPVH360GJMAiicmQKpDAAIQgAAEIJACAiieFAQJFyEAAQhAAAIQiEkAxRMTINUhAAEIQAACEEgBARRPCoKEixCAAAQgAAEIxCSA4okJkOoQgAAEIAABCKSAAIonBUHCRQhAAAIQgAAEYhJA8cQESHUIQAACEIAABFJAAMWTgiDhIgQgAAEIQAACMQmgeGICpDoEIAABCEAAAikggOJJQZBwEQIQgAAEIACBmARQPDEBUh0CEIAABCAAgRQQQPGkIEi4CAEIQAACEIBATAIonpgAqQ4BCEAAAhCAQAoIoHhSECRchAAEIAABCEAgJgEUT0yAVIcABCAAAQhAIAUEUDwpCBIuQgACEIAABCAQkwCKJyZAqkMAAhCAAAQgkAICKJ4UBAkXIQABCEAAAhCISQDFExMg1SEAAQhAAAIQSAEBFE8KgoSLEIAABCAAAQjEJIDiiQmQ6hCAAAQgAAEIpIBAXMXT88VX/EMAAhCAAAQgAIGEE4ireFIg6nARAhCAAAQgAIG6J4DiqfshAAAIQAACEIBAHRBA8dRBkOkiBCAAAQhAoO4JoHjqfggAAAIQgAAEIFAHBFA8dRBkuggBCEAAAhCoewIonrofAgCAAAQgAAEI1AEBFE8dBJkuQgACEIAABOqeAIqn7ocAACAAAQhAAAJ1QADFUwdBposQgAAEIACBuieA4qn7IQAACEAAAhCAQB0QQPHUQZDpIgQgAAEIQKDuCaB46n4IAAACEIAABCBQBwRQPHUQZLoIAQhAAAIQqHsCKJ66HwIAgAAEIAABCNQBARRPHQSZLkIAAhCAAATqnsD/AHLFz/sEoc8sAAAAAElFTkSuQmCC;imageBorder=default;" vertex="1" parent="1">
          <mxGeometry x="150" y="348" width="763" height="175" as="geometry" />
        </mxCell>
        <mxCell id="3UD2lBTm2U6b-ysUh9K5-3" value="&lt;font style=&quot;font-size: 16px;&quot;&gt;&lt;b&gt;Before Login&lt;/b&gt;&lt;/font&gt;" style="text;html=1;align=center;verticalAlign=middle;resizable=0;points=[];autosize=1;strokeColor=none;fillColor=none;" vertex="1" parent="1">
          <mxGeometry x="5" y="130" width="120" height="30" as="geometry" />
        </mxCell>
        <mxCell id="3UD2lBTm2U6b-ysUh9K5-4" value="&lt;font style=&quot;font-size: 16px;&quot;&gt;&lt;b&gt;After Login&lt;/b&gt;&lt;/font&gt;" style="text;html=1;align=center;verticalAlign=middle;resizable=0;points=[];autosize=1;strokeColor=none;fillColor=none;" vertex="1" parent="1">
          <mxGeometry x="5" y="414" width="110" height="30" as="geometry" />
        </mxCell>
      </root>
    </mxGraphModel>
  </diagram>
</mxfile>
